<svg xmlns="http://www.w3.org/2000/svg" xmlns:xlink="http://www.w3.org/1999/xlink" width="500" zoomAndPan="magnify" viewBox="0 0 375 374.999991" height="500" preserveAspectRatio="xMidYMid meet" version="1.0"><path fill="#000000" d="M 188.433594 57.011719 C 188.636719 56.847656 188.75 56.796875 188.800781 56.710938 C 188.902344 56.523438 188.976562 56.320312 189.0625 56.121094 C 191.5625 50.390625 195.214844 45.558594 200.203125 41.746094 C 204.945312 38.125 210.277344 35.820312 216.070312 34.519531 C 217.769531 34.132812 219.488281 33.820312 221.203125 33.480469 C 220.5 32.996094 219.796875 32.707031 219.070312 32.554688 C 216.84375 32.097656 214.597656 31.746094 212.378906 31.253906 C 210.605469 30.855469 209.726562 29.71875 209.617188 27.914062 C 209.371094 23.730469 208.230469 19.816406 206.160156 16.167969 C 204.390625 13.042969 201.886719 10.667969 198.652344 9.179688 C 193.265625 6.707031 187.625 6.527344 181.929688 7.816406 C 178.296875 8.636719 175.125 10.433594 172.683594 13.277344 C 169.324219 17.191406 167.753906 21.902344 167.207031 26.960938 C 166.902344 29.789062 165.417969 31.363281 162.574219 31.605469 C 161.765625 31.675781 160.945312 31.765625 160.160156 31.953125 C 158.617188 32.320312 157.089844 32.765625 155.554688 33.175781 C 155.570312 33.292969 155.582031 33.40625 155.597656 33.519531 C 162.679688 34.484375 169.382812 36.515625 175.332031 40.589844 C 181.359375 44.714844 185.648438 50.257812 188.433594 57.011719 Z M 188.570312 314.179688 C 188.246094 314.875 188.007812 315.304688 187.832031 315.753906 C 185.628906 321.363281 182.363281 326.226562 177.824219 330.222656 C 174.304688 333.328125 170.246094 335.429688 165.78125 336.816406 C 161.484375 338.148438 157.078125 338.585938 152.601562 338.460938 C 151.761719 338.4375 150.921875 338.457031 150.082031 338.457031 C 150.65625 339.15625 151.3125 339.609375 152 340.003906 C 155.402344 341.941406 159.082031 342.964844 162.972656 343.3125 C 165.378906 343.535156 166.929688 344.957031 167.175781 346.894531 C 167.429688 348.929688 167.644531 351 168.203125 352.964844 C 170.332031 360.5 174.933594 365.613281 182.828125 367.289062 C 186.425781 368.050781 190.074219 368.035156 193.675781 367.363281 C 197.722656 366.609375 201.3125 364.808594 204.046875 361.671875 C 207.480469 357.730469 209.195312 352.972656 209.511719 347.847656 C 209.675781 345.175781 211.835938 343.484375 214.09375 343.28125 C 218.09375 342.925781 221.851562 341.742188 225.320312 339.699219 C 225.828125 339.398438 226.292969 339.019531 226.785156 338.675781 C 208.332031 339.371094 195.445312 331.703125 188.570312 314.179688 Z M 299.351562 109.078125 C 299.457031 109.882812 299.542969 110.402344 299.589844 110.929688 C 299.855469 113.835938 300.234375 116.746094 300.316406 119.664062 C 300.367188 121.542969 300.039062 123.445312 299.75 125.3125 C 298.988281 130.21875 297.128906 134.691406 294.265625 138.746094 C 291.296875 142.945312 287.484375 146.195312 283.078125 148.792969 C 282.542969 149.109375 282.042969 149.472656 281.402344 149.894531 C 282.671875 150.523438 283.753906 151.039062 284.8125 151.589844 C 287.953125 153.234375 290.855469 155.238281 293.445312 157.660156 C 298.554688 162.441406 301.859375 168.257812 303.148438 175.148438 C 303.738281 178.289062 304.234375 181.445312 303.761719 184.671875 C 303.625 185.570312 303.738281 186.503906 303.738281 187.648438 C 304.054688 187.3125 304.191406 187.214844 304.265625 187.078125 C 306.210938 183.679688 307.246094 180 307.574219 176.113281 C 307.746094 174.070312 309.792969 172.019531 311.730469 172.011719 C 313.242188 172.007812 314.753906 172.082031 316.25 171.949219 C 323.246094 171.335938 328.257812 167.613281 330.445312 161.261719 C 332.667969 154.820312 332.730469 148.238281 330.953125 141.714844 C 329.027344 134.660156 324.265625 130.277344 316.234375 129.488281 C 314.675781 129.335938 313.097656 129.316406 311.527344 129.226562 C 309.289062 129.105469 307.828125 127.847656 307.601562 125.847656 C 307.488281 124.878906 307.414062 123.90625 307.257812 122.945312 C 306.667969 119.25 305.421875 115.785156 303.234375 112.742188 C 302.277344 111.410156 301.375 109.921875 299.351562 109.078125 Z M 81.046875 194.726562 C 80.882812 192.929688 80.644531 191.539062 80.65625 190.148438 C 80.675781 186.894531 80.71875 183.632812 80.929688 180.386719 C 81.269531 175.171875 82.828125 170.25 85.285156 165.683594 C 88.304688 160.074219 92.664062 155.652344 98.152344 152.367188 C 98.453125 152.1875 98.703125 151.921875 99.105469 151.582031 C 97.449219 150.667969 95.910156 149.882812 94.433594 148.984375 C 86.519531 144.171875 81.316406 137.257812 78.699219 128.402344 C 76.984375 122.601562 76.808594 116.644531 77.0625 110.65625 C 77.082031 110.214844 77.140625 109.777344 77.183594 109.335938 C 76.261719 109.746094 75.558594 110.25 75.003906 110.878906 C 71.359375 115.042969 69.660156 120.007812 69.214844 125.433594 C 68.988281 128.246094 68.015625 129.292969 65.222656 129.515625 C 61.113281 129.84375 57.214844 130.910156 53.652344 133.042969 C 50.4375 134.964844 48.039062 137.597656 46.542969 141.058594 C 44.515625 145.746094 44.246094 150.632812 45.09375 155.578125 C 45.992188 160.828125 48.5 165.160156 53.101562 168.070312 C 56.652344 170.316406 60.574219 171.523438 64.738281 171.902344 C 66.992188 172.113281 69.105469 173.828125 69.273438 176.339844 C 69.632812 181.707031 71.445312 186.625 75.121094 190.6875 C 76.65625 192.378906 78.546875 193.628906 81.046875 194.726562 Z M 117.148438 171.910156 C 123.5625 171.921875 129.980469 171.9375 136.398438 171.941406 C 145.15625 171.949219 153.910156 171.941406 162.667969 171.945312 C 165.332031 171.949219 166.367188 172.761719 166.945312 175.410156 C 167.117188 176.191406 167.148438 177.019531 167.148438 177.828125 C 167.15625 209.410156 167.152344 240.988281 167.15625 272.570312 C 167.15625 280.78125 167.175781 288.984375 167.1875 297.195312 C 166.953125 299.097656 165.851562 300.183594 164.019531 300.621094 C 163.398438 300.765625 162.808594 301.003906 162.203125 301.199219 C 159.859375 301.019531 157.691406 301.757812 155.554688 302.535156 C 152.128906 303.785156 149.15625 305.683594 146.832031 308.570312 C 144.835938 311.050781 143.714844 313.882812 143.132812 316.960938 C 142.300781 321.351562 142.511719 325.695312 143.8125 329.988281 C 144.058594 330.816406 144.464844 331.199219 145.359375 331.351562 C 150.257812 332.167969 155.171875 332.34375 160.078125 331.527344 C 169.296875 329.988281 176.023438 324.949219 180.28125 316.691406 C 183.78125 309.910156 185.15625 302.644531 185.148438 295.011719 C 185.09375 248.605469 185.121094 202.195312 185.121094 155.792969 C 185.121094 155.261719 185.121094 154.734375 185.121094 154.113281 C 184.480469 154.078125 184.003906 154.03125 183.53125 154.03125 C 159.855469 154.027344 136.179688 154.027344 112.5 154.035156 C 111.960938 154.035156 111.421875 154.097656 110.890625 154.195312 C 107.699219 154.769531 104.769531 156.007812 101.980469 157.640625 C 94.1875 162.1875 89.617188 168.996094 87.800781 177.753906 C 86.867188 182.273438 87.046875 186.839844 87.21875 191.394531 C 87.265625 192.6875 87.621094 193.960938 87.738281 195.253906 C 87.820312 196.1875 88.292969 196.460938 89.132812 196.410156 C 91.027344 196.296875 92.929688 196.265625 94.816406 196.078125 C 97.21875 195.839844 99.460938 195.007812 101.574219 193.863281 C 105.867188 191.539062 108.433594 187.792969 110.035156 183.316406 C 110.394531 182.3125 110.480469 181.21875 110.691406 180.164062 C 110.878906 179.847656 111.175781 179.554688 111.234375 179.214844 C 111.417969 178.15625 111.550781 177.082031 111.628906 176.003906 C 111.785156 173.832031 112.640625 172.746094 114.75 172.253906 C 115.53125 172.074219 116.347656 172.019531 117.148438 171.910156 Z M 209.589844 296.554688 C 209.601562 295.683594 209.621094 294.8125 209.621094 293.941406 C 209.621094 255.402344 209.621094 216.859375 209.625 178.320312 C 209.625 177.398438 209.578125 176.46875 209.664062 175.550781 C 209.886719 173.125 211.167969 171.976562 213.605469 171.945312 C 214.3125 171.9375 215.019531 171.945312 215.726562 171.945312 C 230.410156 171.9375 245.09375 171.933594 259.777344 171.925781 C 260.691406 172.027344 261.605469 172.101562 262.511719 172.230469 C 263.625 172.394531 264.414062 173.042969 264.765625 174.097656 C 264.984375 174.753906 265.023438 175.46875 265.152344 176.15625 C 265.367188 177.316406 265.589844 178.46875 265.808594 179.625 C 266.234375 183.105469 267.746094 186.144531 269.675781 189 C 271.304688 191.402344 273.558594 193.117188 276.128906 194.34375 C 280.203125 196.292969 284.582031 196.714844 289.011719 196.328125 C 290.886719 196.167969 292.714844 195.5625 294.5625 195.160156 C 295.269531 195.003906 295.667969 194.597656 295.847656 193.871094 C 297.152344 188.625 297.953125 183.347656 297.121094 177.933594 C 296.261719 172.300781 293.960938 167.378906 289.9375 163.289062 C 287.242188 160.542969 284.109375 158.410156 280.671875 156.742188 C 276.933594 154.933594 273.085938 153.476562 268.785156 154.007812 C 267.980469 154.109375 267.15625 154.027344 266.339844 154.027344 C 242.234375 154.027344 218.132812 154.027344 194.027344 154.027344 C 193.394531 154.027344 192.757812 154.027344 191.984375 154.027344 C 191.984375 154.765625 191.984375 155.296875 191.984375 155.828125 C 191.984375 202.21875 191.984375 248.613281 191.984375 295 C 191.984375 296.796875 191.867188 298.609375 192.078125 300.378906 C 192.648438 305.128906 193.71875 309.769531 195.597656 314.191406 C 197.628906 318.980469 200.582031 323.089844 204.695312 326.308594 C 210.253906 330.667969 216.792969 331.976562 223.636719 332.109375 C 226.003906 332.15625 228.382812 331.730469 230.765625 331.546875 C 232.042969 331.453125 232.78125 330.9375 233.136719 329.582031 C 234.53125 324.191406 234.574219 318.835938 232.730469 313.570312 C 231.324219 309.539062 228.679688 306.457031 224.957031 304.289062 C 221.609375 302.339844 217.980469 301.371094 214.175781 300.9375 C 213.597656 300.832031 213.015625 300.714844 212.429688 300.632812 C 210.960938 300.421875 210.113281 299.5625 209.820312 298.144531 C 209.707031 297.621094 209.664062 297.082031 209.589844 296.554688 Z M 259.246094 129.53125 C 258.539062 129.519531 257.835938 129.5 257.125 129.5 C 242.878906 129.5 228.636719 129.46875 214.394531 129.523438 C 211.230469 129.535156 210.425781 128.183594 209.796875 125.925781 C 209.625 125.3125 209.632812 124.640625 209.632812 123.996094 C 209.617188 116.820312 209.628906 109.648438 209.621094 102.472656 C 209.617188 95.027344 209.597656 87.585938 209.585938 80.136719 C 209.359375 77.378906 209.972656 75.078125 212.894531 74.019531 C 217.085938 73.855469 221.03125 72.785156 224.691406 70.734375 C 228.109375 68.824219 230.679688 66.136719 232.234375 62.492188 C 234.308594 57.632812 234.550781 52.628906 233.597656 47.5 C 233.117188 44.914062 232.242188 42.496094 230.722656 40.3125 C 230.257812 39.648438 229.773438 39.347656 228.980469 39.410156 C 227.578125 39.535156 226.171875 39.609375 224.765625 39.710938 C 220.578125 40 216.503906 40.835938 212.566406 42.304688 C 207.871094 44.0625 203.730469 46.636719 200.34375 50.398438 C 194.867188 56.484375 192.472656 63.769531 192 71.78125 C 191.855469 74.273438 191.984375 76.78125 191.984375 79.285156 C 191.984375 101.316406 191.984375 123.34375 191.984375 145.375 C 191.984375 146.007812 191.984375 146.640625 191.984375 147.417969 C 192.664062 147.417969 193.144531 147.417969 193.621094 147.417969 C 218.4375 147.417969 243.25 147.417969 268.0625 147.410156 C 268.65625 147.410156 269.261719 147.363281 269.839844 147.246094 C 274.332031 146.335938 278.347656 144.332031 282.070312 141.742188 C 287.6875 137.847656 291.511719 132.671875 293.046875 125.941406 C 293.847656 122.429688 294.214844 118.875 293.589844 115.289062 C 293.085938 112.359375 292.492188 109.445312 291.941406 106.523438 C 291.789062 105.730469 291.359375 105.421875 290.507812 105.292969 C 287.460938 104.847656 284.429688 104.894531 281.421875 105.40625 C 277.476562 106.078125 273.902344 107.710938 271.183594 110.679688 C 267.125 115.101562 265.320312 120.476562 265.175781 126.4375 C 264.351562 128.421875 262.710938 129.210938 260.714844 129.46875 C 260.226562 129.53125 259.734375 129.511719 259.246094 129.53125 Z M 116.617188 129.535156 C 114.832031 129.539062 113.382812 128.878906 112.359375 127.382812 C 112.089844 126.988281 111.855469 126.566406 111.609375 126.160156 C 110.742188 108.898438 97.695312 102.480469 84.160156 105.917969 C 83.972656 107.410156 83.621094 108.960938 83.617188 110.511719 C 83.613281 114.148438 83.664062 117.785156 83.902344 121.414062 C 84.113281 124.625 85.085938 127.691406 86.414062 130.621094 C 89.785156 138.097656 95.535156 143.050781 103.050781 146.0625 C 105.539062 147.050781 108.097656 147.648438 110.832031 147.457031 C 113.054688 147.304688 115.292969 147.417969 117.527344 147.417969 C 139.402344 147.417969 161.28125 147.417969 183.15625 147.417969 C 183.785156 147.417969 184.410156 147.417969 185.121094 147.417969 C 185.121094 146.726562 185.121094 146.296875 185.121094 145.863281 C 185.128906 121.929688 185.128906 97.992188 185.164062 74.0625 C 185.167969 68.613281 184.132812 63.421875 181.949219 58.410156 C 179.53125 52.851562 175.773438 48.464844 170.667969 45.292969 C 163.628906 40.921875 155.765625 39.566406 147.625 39.410156 C 146.953125 39.398438 146.46875 39.578125 146.160156 40.195312 C 145.433594 41.644531 144.527344 43.027344 143.976562 44.539062 C 142.425781 48.820312 142.296875 53.253906 143.074219 57.699219 C 143.976562 62.898438 146.457031 67.179688 150.984375 70.066406 C 154.820312 72.507812 159.035156 73.769531 163.582031 74 C 164.453125 74.042969 165.3125 74.433594 166.179688 74.660156 C 167.035156 75.84375 167.328125 77.144531 167.175781 78.601562 C 167.085938 79.449219 167.179688 80.316406 167.1875 81.171875 C 167.175781 81.878906 167.15625 82.585938 167.15625 83.292969 C 167.152344 97.378906 167.109375 111.464844 167.203125 125.546875 C 167.21875 127.765625 165.425781 129.589844 163.136719 129.570312 C 151.546875 129.457031 139.957031 129.503906 128.367188 129.503906 C 124.453125 129.5 120.53125 129.519531 116.617188 129.535156 Z M 313.890625 122.75 C 315.722656 122.941406 317.40625 123.003906 319.042969 123.3125 C 328.648438 125.113281 334.667969 130.84375 337.285156 140.191406 C 338.511719 144.570312 338.84375 149.066406 338.542969 153.585938 C 338.191406 158.890625 337.074219 164.007812 334.089844 168.539062 C 330.886719 173.390625 326.378906 176.414062 320.773438 177.765625 C 318.992188 178.195312 317.132812 178.320312 315.300781 178.5 C 313.984375 178.628906 313.964844 178.558594 313.664062 179.925781 C 312.953125 183.105469 312.078125 186.222656 310.578125 189.152344 C 306.933594 196.234375 301.183594 200.558594 293.449219 202.210938 C 287.554688 203.46875 281.683594 203.25 275.949219 201.269531 C 270.105469 199.25 265.695312 195.5 262.664062 190.105469 C 260.867188 186.902344 259.78125 183.453125 259.039062 179.875 C 258.753906 178.480469 258.722656 178.46875 257.402344 178.46875 C 244.015625 178.464844 230.625 178.464844 217.234375 178.46875 C 216.96875 178.46875 216.695312 178.5 216.195312 178.53125 C 216.183594 179.160156 216.148438 179.785156 216.148438 180.410156 C 216.144531 203.203125 216.144531 226 216.144531 248.796875 C 216.144531 263.269531 216.144531 277.742188 216.144531 292.210938 C 216.144531 292.59375 216.171875 292.976562 216.136719 293.355469 C 216.070312 294.191406 216.359375 294.585938 217.265625 294.777344 C 219.277344 295.207031 221.289062 295.699219 223.230469 296.363281 C 226.8125 297.589844 230.035156 299.464844 232.816406 302.074219 C 236.550781 305.574219 238.804688 309.921875 239.875 314.847656 C 241.183594 320.902344 240.929688 326.929688 238.859375 332.8125 C 236.8125 338.601562 232.996094 342.886719 227.660156 345.867188 C 224.402344 347.691406 220.890625 348.792969 217.226562 349.394531 C 216.285156 349.554688 215.898438 349.847656 215.726562 350.882812 C 215.027344 355.089844 213.636719 359.066406 211.34375 362.699219 C 207.765625 368.355469 202.6875 371.886719 196.195312 373.390625 C 189.230469 375 182.402344 374.652344 175.792969 371.777344 C 170.828125 369.617188 167.191406 366 164.585938 361.296875 C 162.785156 358.035156 161.632812 354.535156 161.046875 350.871094 C 160.878906 349.835938 160.484375 349.59375 159.527344 349.417969 C 155.003906 348.597656 150.726562 347.128906 146.894531 344.472656 C 141.433594 340.691406 138.183594 335.46875 136.84375 329.050781 C 135.71875 323.65625 135.851562 318.265625 137.410156 312.949219 C 139.304688 306.484375 143.214844 301.59375 149.113281 298.363281 C 150.867188 297.40625 152.757812 296.660156 154.648438 296.015625 C 156.539062 295.378906 158.511719 294.996094 160.542969 294.472656 C 160.542969 255.914062 160.542969 217.3125 160.542969 178.59375 C 160.109375 178.546875 159.699219 178.472656 159.285156 178.472656 C 146.007812 178.464844 132.722656 178.464844 119.441406 178.464844 C 118.042969 178.464844 118.015625 178.476562 117.710938 179.964844 C 117.039062 183.222656 116.074219 186.371094 114.527344 189.328125 C 110.84375 196.371094 105.050781 200.601562 97.320312 202.273438 C 93.070312 203.191406 88.730469 203.320312 84.523438 202.527344 C 75.5625 200.835938 68.910156 195.898438 65.386719 187.3125 C 64.34375 184.773438 63.730469 182.050781 63.0625 179.375 C 62.859375 178.550781 62.625 178.203125 61.773438 178.054688 C 58.285156 177.453125 54.914062 176.472656 51.753906 174.816406 C 44.75 171.144531 40.496094 165.390625 38.886719 157.722656 C 37.617188 151.660156 37.890625 145.652344 40.046875 139.777344 C 42.121094 134.121094 45.859375 129.914062 51.078125 126.992188 C 54.375 125.140625 57.929688 123.984375 61.652344 123.382812 C 62.570312 123.234375 62.894531 122.9375 63.054688 122.003906 C 63.949219 116.855469 65.742188 112.082031 69.011719 107.917969 C 71.667969 104.535156 74.996094 102.039062 78.980469 100.546875 C 86.304688 97.804688 93.738281 97.746094 101.136719 100.292969 C 106.9375 102.296875 111.222656 106.140625 114.195312 111.480469 C 116.066406 114.835938 117.140625 118.460938 117.8125 122.222656 C 117.847656 122.425781 117.910156 122.625 117.972656 122.894531 C 132.152344 122.894531 146.277344 122.894531 160.636719 122.894531 C 160.636719 122.273438 160.636719 121.699219 160.636719 121.121094 C 160.636719 108.28125 160.636719 95.441406 160.636719 82.601562 C 160.632812 80.3125 160.609375 80.320312 158.367188 79.878906 C 153.78125 78.972656 149.558594 77.226562 145.808594 74.378906 C 141.339844 70.984375 138.542969 66.476562 137.175781 61.125 C 135.539062 54.71875 135.722656 48.328125 137.9375 42.058594 C 139.976562 36.273438 143.792969 31.980469 149.136719 29.015625 C 152.449219 27.175781 156.011719 26.050781 159.730469 25.445312 C 160.582031 25.308594 160.886719 25.011719 161.027344 24.152344 C 161.738281 19.886719 163.109375 15.855469 165.445312 12.175781 C 169.171875 6.300781 174.519531 2.765625 181.238281 1.320312 C 187.242188 0.0234375 193.222656 0.253906 199.046875 2.332031 C 204.804688 4.390625 209.167969 8.144531 212.136719 13.492188 C 213.976562 16.796875 215.136719 20.34375 215.746094 24.0625 C 215.894531 24.996094 216.21875 25.292969 217.132812 25.453125 C 222.167969 26.335938 226.871094 28.054688 230.964844 31.21875 C 234.632812 34.046875 237.335938 37.601562 238.800781 41.988281 C 241.703125 50.660156 241.433594 59.171875 237.070312 67.347656 C 234.910156 71.386719 231.613281 74.347656 227.640625 76.558594 C 224.628906 78.234375 221.414062 79.359375 218.003906 79.921875 C 217.425781 80.015625 216.859375 80.191406 216.226562 80.347656 C 216.226562 94.519531 216.226562 108.640625 216.226562 122.871094 C 230.410156 122.871094 244.535156 122.871094 258.785156 122.871094 C 259.058594 121.609375 259.289062 120.289062 259.632812 119 C 260.9375 114.160156 263.027344 109.738281 266.554688 106.082031 C 270.144531 102.363281 274.550781 100.179688 279.570312 99.171875 C 285.09375 98.0625 290.613281 98.203125 295.988281 99.882812 C 302.269531 101.847656 307.0625 105.753906 310.203125 111.59375 C 312.066406 115.0625 313.222656 118.773438 313.890625 122.75 " fill-opacity="1" fill-rule="evenodd"/><path fill="#737373" d="M 201.65625 15.632812 C 197.589844 11.375 192.421875 10.4375 186.835938 10.851562 C 186.679688 10.867188 186.515625 10.929688 186.363281 10.984375 C 185.328125 11.359375 184.625 12.316406 184.640625 13.324219 C 184.660156 14.394531 185.46875 15.402344 186.585938 15.65625 C 187.003906 15.746094 187.453125 15.707031 187.882812 15.726562 C 189.128906 15.773438 190.398438 15.699219 191.621094 15.890625 C 196.101562 16.578125 199.183594 18.585938 200.132812 23.566406 C 200.171875 23.777344 200.210938 23.988281 200.285156 24.191406 C 200.707031 25.394531 201.777344 26.101562 202.90625 25.945312 C 204.125 25.773438 204.992188 24.738281 205.019531 23.429688 C 205.0625 21.316406 203.515625 17.582031 201.65625 15.632812 Z M 187.457031 359.875 C 187.023438 359.847656 186.585938 359.800781 186.152344 359.800781 C 184.582031 359.800781 183.402344 360.796875 183.335938 362.152344 C 183.273438 363.433594 184.277344 364.59375 185.785156 364.714844 C 190.351562 365.074219 194.707031 364.382812 198.488281 361.597656 C 201.542969 359.351562 203.171875 356.21875 203.679688 352.503906 C 203.882812 351.011719 202.996094 349.839844 201.664062 349.613281 C 200.421875 349.394531 199.296875 350.195312 198.898438 351.597656 C 198.75 352.121094 198.667969 352.660156 198.523438 353.179688 C 197.761719 355.9375 196.085938 357.949219 193.359375 358.832031 C 191.46875 359.445312 189.464844 359.707031 187.515625 360.128906 C 187.496094 360.042969 187.476562 359.957031 187.457031 359.875 Z M 329.492188 149.074219 C 329.199219 147.9375 328.101562 147.230469 327.039062 147.308594 C 325.96875 147.382812 325.007812 148.234375 324.800781 149.359375 C 324.722656 149.78125 324.78125 150.222656 324.765625 150.660156 C 324.710938 151.90625 324.769531 153.171875 324.578125 154.394531 C 324.101562 157.460938 322.964844 160.195312 320.023438 161.707031 C 319.023438 162.222656 317.890625 162.492188 316.796875 162.792969 C 315.179688 163.234375 314.289062 164.332031 314.550781 165.671875 C 314.816406 167.050781 316.039062 167.859375 317.648438 167.613281 C 320.578125 167.175781 323.175781 166 325.285156 163.886719 C 328.613281 160.554688 329.609375 156.339844 329.789062 151.429688 C 329.726562 150.894531 329.714844 149.957031 329.492188 149.074219 Z M 52.363281 147.5625 C 52.292969 146.179688 51.320312 145.113281 50.070312 145.023438 C 48.898438 144.9375 47.808594 145.796875 47.507812 147.09375 C 47.421875 147.457031 47.359375 147.851562 47.386719 148.222656 C 47.519531 150.167969 47.53125 152.144531 47.882812 154.050781 C 48.421875 156.996094 49.730469 159.617188 51.929688 161.71875 C 54.125 163.816406 56.769531 165.011719 59.773438 165.363281 C 61.183594 165.527344 62.300781 164.664062 62.554688 163.394531 C 62.796875 162.160156 62.007812 160.992188 60.632812 160.585938 C 60.058594 160.417969 59.460938 160.339844 58.886719 160.171875 C 56.273438 159.410156 54.417969 157.792969 53.386719 155.25 C 52.589844 153.304688 52.292969 151.277344 52.371094 149.191406 C 52.371094 148.652344 52.394531 148.105469 52.363281 147.5625 Z M 167.175781 78.601562 C 167.085938 79.449219 167.179688 80.316406 167.1875 81.171875 C 170.449219 81.640625 171.855469 82.96875 172.457031 86.207031 C 172.601562 87.003906 172.695312 87.820312 172.699219 88.628906 C 172.71875 103.464844 172.726562 118.296875 172.730469 133.128906 C 172.730469 133.5 172.683594 133.863281 172.648438 134.410156 C 171.984375 134.410156 171.402344 134.410156 170.820312 134.410156 C 157.179688 134.410156 143.53125 134.421875 129.890625 134.394531 C 127.070312 134.390625 124.25 134.257812 121.433594 134.125 C 120.742188 134.09375 120.042969 133.867188 119.378906 133.648438 C 117.105469 132.890625 116.480469 131.933594 116.617188 129.535156 C 114.832031 129.539062 113.382812 128.878906 112.359375 127.382812 C 112.089844 126.988281 111.855469 126.566406 111.609375 126.160156 C 110.746094 126.429688 110.566406 127.230469 110.371094 127.917969 C 109.101562 132.304688 111.117188 136.816406 115.21875 138.902344 C 118.5625 140.601562 122.15625 140.988281 125.835938 140.976562 C 134.210938 140.949219 142.589844 140.929688 150.964844 140.921875 C 158.742188 140.914062 166.523438 140.984375 174.300781 140.890625 C 178.410156 140.839844 179.292969 138.867188 179.277344 135.960938 C 179.199219 121.605469 179.257812 107.25 179.257812 92.894531 C 179.257812 91.101562 179.257812 89.308594 179.160156 87.515625 C 179.023438 84.882812 178.472656 82.332031 177.011719 80.085938 C 174.46875 76.179688 170.75 74.554688 166.179688 74.660156 C 167.035156 75.84375 167.328125 77.144531 167.175781 78.601562 Z M 260.714844 129.46875 C 260.226562 129.53125 259.734375 129.511719 259.246094 129.53125 C 259.222656 130.960938 258.4375 131.933594 257.164062 132.335938 C 255.621094 132.820312 254.023438 133.28125 252.421875 133.378906 C 249.660156 133.546875 246.882812 133.429688 244.113281 133.429688 C 231.011719 133.429688 217.914062 133.429688 204.8125 133.429688 C 204.324219 133.429688 203.839844 133.429688 203.214844 133.429688 C 203.160156 132.960938 203.066406 132.554688 203.066406 132.148438 C 203.066406 117.316406 203.074219 102.480469 203.101562 87.648438 C 203.105469 86.625 203.234375 85.585938 203.464844 84.585938 C 204.070312 81.910156 205.726562 80.496094 208.445312 80.203125 C 208.824219 80.164062 209.207031 80.160156 209.585938 80.136719 C 209.359375 77.378906 209.972656 75.078125 212.894531 74.019531 C 211.324219 73.910156 209.753906 73.648438 208.199219 73.714844 C 202.984375 73.941406 198.832031 77.140625 197.460938 82.183594 C 196.867188 84.351562 196.605469 86.675781 196.59375 88.933594 C 196.519531 103.605469 196.550781 118.285156 196.550781 132.960938 C 196.550781 133.992188 196.5625 135.023438 196.566406 136.058594 C 196.574219 137.792969 197.40625 138.988281 199.046875 139.472656 C 200.023438 139.761719 201.070312 139.917969 202.085938 139.921875 C 209.914062 139.957031 217.746094 139.933594 225.574219 139.941406 C 233.734375 139.949219 241.890625 139.96875 250.046875 139.996094 C 253.730469 140.007812 257.3125 139.59375 260.65625 137.890625 C 265.460938 135.441406 266.664062 130.195312 265.175781 126.4375 C 264.351562 128.421875 262.710938 129.210938 260.714844 129.46875 Z M 212.429688 300.632812 C 210.960938 300.421875 210.113281 299.5625 209.820312 298.144531 C 209.707031 297.621094 209.664062 297.082031 209.589844 296.554688 C 208.992188 297.023438 208.429688 297.542969 207.789062 297.949219 C 206.753906 298.605469 206.015625 298.535156 205.171875 297.621094 C 203.855469 296.183594 203.054688 294.566406 203.042969 292.5 C 202.929688 262.742188 202.765625 232.984375 202.617188 203.226562 C 202.558594 191.261719 202.5 179.292969 202.441406 167.324219 C 202.4375 166.78125 202.441406 166.242188 202.441406 165.554688 C 202.890625 165.5 203.300781 165.410156 203.707031 165.410156 C 220.363281 165.402344 237.019531 165.421875 253.671875 165.386719 C 255.777344 165.378906 257.257812 166.3125 258.214844 168.015625 C 258.894531 169.230469 259.269531 170.617188 259.777344 171.925781 C 260.691406 172.027344 261.605469 172.101562 262.511719 172.230469 C 263.625 172.394531 264.414062 173.042969 264.765625 174.097656 C 264.984375 174.753906 265.023438 175.46875 265.152344 176.15625 C 265.367188 177.316406 265.589844 178.46875 265.808594 179.625 C 266.777344 178.992188 267.101562 178.03125 267.0625 176.945312 C 266.921875 172.765625 266.160156 168.714844 264.035156 165.054688 C 261.742188 161.101562 258.363281 158.875 253.644531 158.882812 C 236.171875 158.902344 218.699219 158.882812 201.226562 158.910156 C 200.214844 158.914062 199.167969 159.113281 198.195312 159.414062 C 196.757812 159.867188 196.011719 160.960938 195.929688 162.480469 C 195.90625 162.96875 195.917969 163.460938 195.917969 163.945312 C 195.992188 174.011719 196.082031 184.074219 196.136719 194.140625 C 196.246094 215.574219 196.339844 237.007812 196.433594 258.441406 C 196.484375 270.136719 196.515625 281.835938 196.570312 293.53125 C 196.574219 294.335938 196.625 295.175781 196.859375 295.9375 C 197.574219 298.25 198.742188 300.339844 200.414062 302.101562 C 202.179688 303.960938 204.285156 305.007812 206.941406 304.867188 C 210.007812 304.703125 212.203125 303.058594 214.175781 300.9375 C 213.597656 300.832031 213.015625 300.714844 212.429688 300.632812 Z M 110.691406 180.164062 C 110.367188 179.445312 109.761719 178.722656 109.761719 178.007812 C 109.777344 173.3125 110.667969 168.796875 113.3125 164.816406 C 115.679688 161.25 119.035156 159.507812 123.378906 159.527344 C 136.546875 159.574219 149.71875 159.542969 162.890625 159.542969 C 167.082031 159.542969 171.273438 159.511719 175.460938 159.5625 C 176.476562 159.574219 177.527344 159.738281 178.496094 160.035156 C 180.007812 160.492188 180.792969 161.613281 180.851562 163.207031 C 180.867188 163.589844 180.863281 163.96875 180.863281 164.347656 C 180.707031 194.59375 180.550781 224.839844 180.398438 255.082031 C 180.335938 268.195312 180.285156 281.304688 180.210938 294.410156 C 180.191406 298.761719 176.453125 303.976562 172.5 305.199219 C 169.390625 306.160156 166.71875 305.164062 164.308594 303.234375 C 163.546875 302.628906 162.902344 301.882812 162.203125 301.199219 C 162.808594 301.003906 163.398438 300.765625 164.019531 300.621094 C 165.851562 300.183594 166.953125 299.097656 167.1875 297.195312 C 167.78125 297.667969 168.34375 298.191406 168.984375 298.597656 C 170.019531 299.261719 170.761719 299.191406 171.597656 298.277344 C 172.824219 296.929688 173.714844 295.4375 173.722656 293.492188 C 173.757812 284.460938 173.863281 275.429688 173.90625 266.402344 C 173.96875 253.292969 173.980469 240.183594 174.039062 227.074219 C 174.128906 207.382812 174.234375 187.691406 174.335938 168.003906 C 174.339844 167.378906 174.339844 166.753906 174.339844 166.054688 C 170.640625 166.054688 167.214844 166.054688 163.789062 166.054688 C 150.292969 166.058594 136.792969 166.089844 123.300781 166.03125 C 120.992188 166.019531 119.449219 167.027344 118.402344 168.914062 C 117.878906 169.851562 117.5625 170.90625 117.148438 171.910156 C 116.347656 172.019531 115.53125 172.074219 114.75 172.253906 C 112.640625 172.746094 111.785156 173.832031 111.628906 176.003906 C 111.550781 177.082031 111.417969 178.15625 111.234375 179.214844 C 111.175781 179.554688 110.878906 179.847656 110.691406 180.164062 " fill-opacity="1" fill-rule="evenodd"/></svg>